<svg aria-hidden="true" style="position: absolute; width: 0; height: 0; overflow: hidden;" version="1.1" xmlns="http://www.w3.org/2000/svg" xmlns:xlink="http://www.w3.org/1999/xlink">
<defs>
<symbol id="icon-rock" viewBox="0 0 448 512">
  <path d="M144 64c0-8.8 7.2-16 16-16s16 7.2 16 16c0 9.1 5.1 17.4 13.3 21.5s17.9 3.2 25.1-2.3c2.7-2 6-3.2 9.6-3.2c8.8 0 16 7.2 16 16c0 9.1 5.1 17.4 13.3 21.5s17.9 3.2 25.1-2.3c2.7-2 6-3.2 9.6-3.2c8.8 0 16 7.2 16 16c0 9.1 5.1 17.4 13.3 21.5s17.9 3.2 25.1-2.3c2.7-2 6-3.2 9.6-3.2c8.8 0 16 7.2 16 16V264c0 31.3-20 58-48 67.9c-9.6 3.4-16 12.5-16 22.6V488c0 13.3 10.7 24 24 24s24-10.7 24-24V370.2c38-20.1 64-60.1 64-106.2V160c0-35.3-28.7-64-64-64c-2.8 0-5.6 .2-8.3 .5C332.8 77.1 311.9 64 288 64c-2.8 0-5.6 .2-8.3 .5C268.8 45.1 247.9 32 224 32c-2.8 0-5.6 .2-8.3 .5C204.8 13.1 183.9 0 160 0C124.7 0 96 28.7 96 64v64.3c-11.7 7.4-22.5 16.4-32 26.9l17.8 16.1L64 155.2l-9.4 10.5C40 181.8 32 202.8 32 224.6v12.8c0 49.6 24.2 96.1 64.8 124.5l13.8-19.7L96.8 361.9l8.9 6.2c6.9 4.8 14.4 8.6 22.3 11.3V488c0 13.3 10.7 24 24 24s24-10.7 24-24V359.9c0-12.6-9.8-23.1-22.4-23.9c-7.3-.5-14.3-2.9-20.3-7.1l-13.1 18.7 13.1-18.7-8.9-6.2C96.6 303.1 80 271.3 80 237.4V224.6c0-9.9 3.7-19.4 10.3-26.8l9.4-10.5c3.8-4.2 7.9-8.1 12.3-11.6V208c0 8.8 7.2 16 16 16s16-7.2 16-16V142.3 128 64z"/>
</symbol>
<symbol id="icon-paper" viewBox="0 0 512 512">
  <path d="M256 0c-25.3 0-47.2 14.7-57.6 36c-7-2.6-14.5-4-22.4-4c-35.3 0-64 28.7-64 64V261.5l-2.7-2.7c-25-25-65.5-25-90.5 0s-25 65.5 0 90.5L106.5 437c48 48 113.1 75 181 75H296h8c1.5 0 3-.1 4.5-.4c91.7-6.2 165-79.4 171.1-171.1c.3-1.5 .4-3 .4-4.5V160c0-35.3-28.7-64-64-64c-5.5 0-10.9 .7-16 2V96c0-35.3-28.7-64-64-64c-7.9 0-15.4 1.4-22.4 4C303.2 14.7 281.3 0 256 0zM240 96.1c0 0 0-.1 0-.1V64c0-8.8 7.2-16 16-16s16 7.2 16 16V95.9c0 0 0 .1 0 .1V232c0 13.3 10.7 24 24 24s24-10.7 24-24V96c0 0 0 0 0-.1c0-8.8 7.2-16 16-16s16 7.2 16 16v55.9c0 0 0 .1 0 .1v80c0 13.3 10.7 24 24 24s24-10.7 24-24V160.1c0 0 0-.1 0-.1c0-8.8 7.2-16 16-16s16 7.2 16 16V332.9c-.1 .6-.1 1.3-.2 1.9c-3.4 69.7-59.3 125.6-129 129c-.6 0-1.3 .1-1.9 .2H296h-8.5c-55.2 0-108.1-21.9-147.1-60.9L52.7 315.3c-6.2-6.2-6.2-16.4 0-22.6s16.4-6.2 22.6 0L119 336.4c6.9 6.9 17.2 8.9 26.2 5.2s14.8-12.5 14.8-22.2V96c0-8.8 7.2-16 16-16c8.8 0 16 7.1 16 15.9V232c0 13.3 10.7 24 24 24s24-10.7 24-24V96.1z"/>
</symbol>
<symbol id="icon-scissors" viewBox="0 0 512 512">
  <path d="M.2 276.3c-1.2-35.3 26.4-65 61.7-66.2l3.3-.1L57 208.1C22.5 200.5 .7 166.3 8.3 131.8S50.2 75.5 84.7 83.2l173 38.3c2.3-2.9 4.7-5.7 7.1-8.5l18.4-20.3C299.9 74.5 323.5 64 348.3 64l10.2 0c54.1 0 104.1 28.7 131.3 75.4l1.5 2.6c13.6 23.2 20.7 49.7 20.7 76.6L512 344c0 66.3-53.7 120-120 120l-8 0-96 0c-35.3 0-64-28.7-64-64c0-2.8 .2-5.6 .5-8.3c-19.4-11-32.5-31.8-32.5-55.7c0-.8 0-1.6 0-2.4L66.4 338c-35.3 1.2-65-26.4-66.2-61.7zm63.4-18.2c-8.8 .3-15.7 7.7-15.4 16.5s7.7 15.7 16.5 15.4l161.5-5.6c9.8-.3 18.7 5.3 22.7 14.2s2.2 19.3-4.5 26.4c-2.8 2.9-4.4 6.7-4.4 11c0 8.8 7.2 16 16 16c9.1 0 17.4 5.1 21.5 13.3s3.2 17.9-2.3 25.1c-2 2.7-3.2 6-3.2 9.6c0 8.8 7.2 16 16 16l96 0 8 0c39.8 0 72-32.2 72-72l0-125.4c0-18.4-4.9-36.5-14.2-52.4l-1.5-2.6c-18.6-32-52.8-51.6-89.8-51.6l-10.2 0c-11.3 0-22 4.8-29.6 13.1l-17.5-15.9 17.5 15.9-18.4 20.3c-.6 .6-1.1 1.3-1.7 1.9l57 13.2c8.6 2 14 10.6 12 19.2s-10.6 14-19.2 12l-85.6-19.7L74.3 130c-8.6-1.9-17.2 3.5-19.1 12.2s3.5 17.2 12.2 19.1l187.5 41.6c10.2 2.3 17.8 10.9 18.7 21.4l.1 1c.6 6.6-1.5 13.1-5.8 18.1s-10.6 7.9-17.2 8.2L63.6 258.1z"/>
</symbol>
<symbol id="icon-lizard" viewBox="0 0 512 512">
  <path d="M72 112c-13.3 0-24 10.7-24 24s10.7 24 24 24H240c35.3 0 64 28.7 64 64s-28.7 64-64 64H136c-13.3 0-24 10.7-24 24s10.7 24 24 24H288c4.5 0 8.9 1.3 12.7 3.6l64 40c7 4.4 11.3 12.1 11.3 20.4v24c0 13.3-10.7 24-24 24s-24-10.7-24-24V413.3L281.1 384H136c-39.8 0-72-32.2-72-72s32.2-72 72-72H240c8.8 0 16-7.2 16-16s-7.2-16-16-16H72c-39.8 0-72-32.2-72-72S32.2 64 72 64H281.6c46.7 0 90.9 21.5 119.7 58.3l78.4 100.1c20.9 26.7 32.3 59.7 32.3 93.7V424c0 13.3-10.7 24-24 24s-24-10.7-24-24V316.1c0-23.2-7.8-45.8-22.1-64.1L363.5 151.9c-19.7-25.2-49.9-39.9-81.9-39.9H72z"/>
</symbol>
<symbol id="icon-spock" viewBox="0 0 576 512">
  <path d="M221.7 25.3L215.6 2.1l6.2 23.2zm48.9 28.4l23.2-6.2v0l-23.2 6.2zM193.3 74.3l-23.2 6.2 0 0 23.2-6.2zm46.5 175.3l-22.1 9.3c4.9 11.6 17.9 17.5 29.9 13.4s18.7-16.7 15.4-28.9l-23.2 6.2zm-51-121.1l-22.1 9.3v0l22.1-9.3zm-52.4-21.3l9.3 22.1h0l-9.3-22.1zm-21.3 52.4L93 168.8h0l22.1-9.3zm5.4 144.9l14.7-18.9h0l-14.7 18.9zm-56.1 7l18.9 14.7 0 0L64.4 311.4zm7 56.1L56.7 386.5h0l14.7-18.9zm92 71.6l-14.7 18.9 14.7-18.9zm300.1-48.5l23.3 5.8-23.3-5.8zm55.2-220.9l23.3 5.8-23.3-5.8zm-29.1-48.5l5.8-23.3-5.8 23.3zm-48.5 29.1l23.3 5.8v0l-23.3-5.8zM415 255l23.3 5.8 0 0L415 255zm-2.6-.5l23.6 4.2 0 0-23.6-4.2zM439.4 103l23.6 4.2v0L439.4 103zM407 56.6l-4.2 23.6L407 56.6zM360.6 89L337 84.8 360.6 89zM331.5 252.6l-23.6-4.2 0 0 23.6 4.2zm-8 .3l23.2-6.2 0 0-23.2 6.2zM336 488l.5-24-.5 24zm-157-138L193.8 331l-14.7 18.9zM227.9 48.5c8.5-2.3 17.3 2.8 19.6 11.4l46.4-12.3c-9.1-34.2-44.1-54.5-78.3-45.4l12.3 46.4zM216.5 68.1c-2.3-8.5 2.8-17.3 11.4-19.6L215.6 2.1c-34.2 9.1-54.5 44.1-45.4 78.3l46.4-12.3zM263 243.4L216.5 68.1 170.1 80.4l46.5 175.3L263 243.4zM166.7 137.8l51 121.1L262 240.2 211 119.2l-44.2 18.6zm-21-8.5c8.1-3.4 17.5 .4 21 8.5L211 119.2C197.3 86.6 159.7 71.3 127.2 85l18.6 44.2zm-8.5 21c-3.4-8.1 .4-17.5 8.5-21L127.2 85C94.6 98.7 79.3 136.3 93 168.8l44.2-18.6zm76.2 181l-76.2-181L93 168.8l76.2 181 44.2-18.6zm-107.6-7.8l58.5 45.5L193.8 331l-58.5-45.5-29.5 37.9zm-22.5 2.8c5.4-7 15.5-8.2 22.5-2.8l29.5-37.9c-27.9-21.7-68.1-16.7-89.8 11.2l37.9 29.5zm2.8 22.5c-7-5.4-8.2-15.5-2.8-22.5L45.5 296.7c-21.7 27.9-16.7 68.1 11.2 89.8l29.5-37.9zm92 71.6l-92-71.6L56.7 386.5l92 71.6 29.5-37.9zM305.9 464c-46.3 0-91.2-15.4-127.7-43.8l-29.5 37.9C193.6 493 248.9 512 305.9 512V464zm30.1 0H305.9v48H336V464zm2.8 0c-.8 0-1.5 0-2.3 0l-1 48c1.1 0 2.2 0 3.3 0V464zm101.5-79.2C428.7 431.3 386.8 464 338.8 464v48c70 0 131.1-47.7 148-115.6l-46.6-11.6zm55.2-220.9L440.3 384.8l46.6 11.6 55.2-220.9-46.6-11.6zm-11.6-19.4c8.6 2.1 13.8 10.8 11.6 19.4l46.6 11.6c8.6-34.3-12.3-69-46.6-77.6l-11.6 46.6zm-19.4 11.6c2.1-8.6 10.8-13.8 19.4-11.6l11.6-46.6c-34.3-8.6-69 12.3-77.6 46.6l46.6 11.6zM438.3 260.8l26.2-104.7-46.6-11.6L391.7 249.2l46.6 11.6zM413.7 280c11.6 0 21.7-7.9 24.6-19.2l-46.6-11.6c2.5-10.1 11.6-17.2 22-17.2v48zm-24.9-29.7c-2.8 15.5 9.2 29.7 24.9 29.7V232c14.1 0 24.8 12.8 22.3 26.7l-47.3-8.4zM415.8 98.8L388.8 250.3l47.3 8.4L463 107.2l-47.3-8.4zm-13-18.6c8.7 1.5 14.5 9.9 13 18.6l47.3 8.4c6.2-34.8-17-68-51.8-74.2l-8.4 47.3zm-18.6 13c1.5-8.7 9.9-14.5 18.6-13L411.2 33c-34.8-6.2-68 17-74.2 51.8l47.3 8.4zM355.2 256.8L384.2 93.2 337 84.8 307.9 248.4l47.3 8.4zM327.5 280c13.6 0 25.3-9.8 27.7-23.2l-47.3-8.4c1.7-9.5 9.9-16.4 19.6-16.4v48zm-27.2-20.9c3.3 12.3 14.4 20.9 27.2 20.9V232c9 0 16.9 6.1 19.2 14.8l-46.4 12.3zM247.5 59.9l52.8 199.2 46.4-12.3L293.9 47.6 247.5 59.9zM360 488c0 13.5-11.1 24.3-24.5 24l1-48c-13.5-.3-24.5 10.5-24.5 24h48zm-24 24c13.3 0 24-10.8 24-24H312c0-13.2 10.7-24 24-24v48zM169.2 349.8c-6.4-15.2 11.6-29 24.6-18.8l-29.5 37.9c26 20.2 61.9-7.3 49.1-37.7l-44.2 18.6z"/>
</symbol>
<symbol id="icon-reset" viewBox="0 0 512 512">
  <path d="M142.9 142.9c62.2-62.2 162.7-62.5 225.3-1L327 183c-6.9 6.9-8.9 17.2-5.2 26.2s12.5 14.8 22.2 14.8H463.5c0 0 0 0 0 0H472c13.3 0 24-10.7 24-24V72c0-9.7-5.8-18.5-14.8-22.2s-19.3-1.7-26.2 5.2L413.4 96.6c-87.6-86.5-228.7-86.2-315.8 1C73.2 122 55.6 150.7 44.8 181.4c-5.9 16.7 2.9 34.9 19.5 40.8s34.9-2.9 40.8-19.5c7.7-21.8 20.2-42.3 37.8-59.8zM16 312v7.6 .7V440c0 9.7 5.8 18.5 14.8 22.2s19.3 1.7 26.2-5.2l41.6-41.6c87.6 86.5 228.7 86.2 315.8-1c24.4-24.4 42.1-53.1 52.9-83.7c5.9-16.7-2.9-34.9-19.5-40.8s-34.9 2.9-40.8 19.5c-7.7 21.8-20.2 42.3-37.8 59.8c-62.2 62.2-162.7 62.5-225.3 1L185 329c6.9-6.9 8.9-17.2 5.2-26.2s-12.5-14.8-22.2-14.8H48.4h-.7H40c-13.3 0-24 10.7-24 24z"/>
</symbol>
</defs>
</svg>
